<svg xmlns="http://www.w3.org/2000/svg" xmlns:xlink="http://www.w3.org/1999/xlink" width="500" zoomAndPan="magnify" viewBox="0 0 375 374.999991" height="500" preserveAspectRatio="xMidYMid meet" version="1.0"><defs><g/><clipPath id="330e7f6999"><path d="M 123 96.980469 L 251 96.980469 L 251 274 L 123 274 Z M 123 96.980469 " clip-rule="nonzero"/></clipPath></defs><g clip-path="url(#330e7f6999)"><path fill="#ffffff" d="M 222 211.714844 C 229.53125 214.679688 237.605469 222.210938 243.542969 232.5625 C 253.101562 249.28125 253.320312 267.160156 244.050781 272.445312 C 234.78125 277.730469 219.535156 268.429688 209.976562 251.671875 C 205.199219 243.308594 202.773438 234.660156 202.664062 227.421875 L 193.9375 211.714844 Z M 180.9375 211.714844 L 172.175781 227.421875 C 172.070312 234.660156 169.640625 243.308594 164.863281 251.671875 C 155.304688 268.390625 140.0625 277.730469 130.792969 272.445312 C 121.523438 267.160156 121.777344 249.28125 131.296875 232.5625 C 137.238281 222.210938 145.347656 214.679688 152.878906 211.714844 Z M 214.976562 216.597656 C 213.707031 216.746094 212.511719 217.105469 211.425781 217.722656 C 204.367188 221.738281 204.222656 234.769531 211.101562 246.785156 C 217.945312 258.800781 229.242188 265.316406 236.300781 261.296875 C 243.324219 257.316406 243.507812 244.289062 236.628906 232.269531 C 232.464844 224.960938 226.671875 219.710938 221.167969 217.578125 Z M 159.867188 216.597656 C 161.132812 216.746094 162.328125 217.105469 163.414062 217.722656 C 170.476562 221.738281 170.621094 234.769531 163.742188 246.785156 C 156.898438 258.800781 145.601562 265.316406 138.539062 261.296875 C 131.515625 257.316406 131.371094 244.289062 138.25 232.269531 C 142.414062 224.960938 148.207031 219.710938 153.710938 217.578125 Z M 177.28125 159.195312 L 164.683594 159.195312 L 130.03125 96.980469 Z M 210.195312 159.195312 L 197.59375 159.195312 L 244.847656 96.980469 Z M 210.195312 159.195312 " fill-opacity="1" fill-rule="evenodd"/></g><g fill="#ffffff" fill-opacity="1"><g transform="translate(106.790221, 197.324222)"><g><path d="M 15.921875 -2.707031 L 15.210938 -6.886719 L 6.039062 -5.328125 L 5.089844 -10.914062 L 13.453125 -12.335938 L 12.75 -16.488281 L 4.386719 -15.066406 L 3.679688 -19.21875 L 10.878906 -20.441406 L 10.167969 -24.625 L -1.660156 -22.613281 L 2.121094 -0.359375 Z M 15.921875 -2.707031 "/></g></g></g><g fill="#ffffff" fill-opacity="1"><g transform="translate(124.365304, 194.356219)"><g><path d="M -0.753906 -22.664062 L 2.132812 -0.273438 L 15.808594 -2.039062 L 15.265625 -6.246094 L 6.25 -5.082031 L 3.90625 -23.265625 Z M -0.753906 -22.664062 "/></g></g></g><g fill="#ffffff" fill-opacity="1"><g transform="translate(141.081805, 192.200587)"><g><path d="M 16.085938 -1.421875 L 15.714844 -5.648438 L 6.449219 -4.828125 L 5.949219 -10.472656 L 14.402344 -11.21875 L 14.03125 -15.414062 L 5.578125 -14.667969 L 5.207031 -18.863281 L 12.480469 -19.503906 L 12.109375 -23.730469 L 0.15625 -22.675781 L 2.144531 -0.1875 Z M 16.085938 -1.421875 "/></g></g></g><g fill="#ffffff" fill-opacity="1"><g transform="translate(158.756435, 190.543516)"><g><path d="M 24.035156 -13.242188 L 12.46875 -12.808594 L 12.625 -8.628906 L 18.742188 -8.859375 C 17.839844 -6.1875 15.378906 -4.699219 12.652344 -4.597656 C 8.867188 -4.457031 5.753906 -7.523438 5.605469 -11.488281 C 5.453125 -15.484375 8.332031 -18.808594 12.117188 -18.949219 C 14.78125 -19.050781 17.167969 -17.621094 18.433594 -15.457031 L 22.085938 -18.324219 C 19.933594 -21.546875 16.125 -23.585938 11.917969 -23.429688 C 5.5 -23.1875 0.546875 -17.757812 0.789062 -11.308594 C 1.03125 -4.859375 6.375 0.15625 12.824219 -0.0859375 C 19.300781 -0.328125 24.308594 -5.882812 24.058594 -12.542969 Z M 24.035156 -13.242188 "/></g></g></g><g fill="#ffffff" fill-opacity="1"><g transform="translate(184.739588, 189.611561)"><g><path d="M 18.539062 0.375 L 23.660156 0.476562 L 12.1875 -22.726562 L -0.183594 -0.00390625 L 4.664062 0.09375 L 6.179688 -2.90625 L 17.117188 -2.683594 Z M 11.832031 -14.066406 L 15.140625 -6.96875 L 8.296875 -7.105469 Z M 11.832031 -14.066406 "/></g></g></g><g fill="#ffffff" fill-opacity="1"><g transform="translate(208.560031, 190.080237)"><g><path d="M 18.890625 -8.082031 L 3.917969 -22.761719 L 2.144531 0.164062 L 6.828125 0.527344 L 7.828125 -12.402344 L 22.808594 2.15625 L 24.578125 -20.742188 L 19.894531 -21.101562 Z M 18.890625 -8.082031 "/></g></g></g><g fill="#ffffff" fill-opacity="1"><g transform="translate(233.922329, 192.146435)"><g><path d="M 10.761719 1.375 L 13.082031 -16.808594 L 18.976562 -16.054688 L 19.511719 -20.261719 L 3.433594 -22.320312 L 2.894531 -18.109375 L 8.425781 -17.402344 L 6.101562 0.78125 Z M 10.761719 1.375 "/></g></g></g><g fill="#ffffff" fill-opacity="1"><g transform="translate(251.593609, 194.414325)"><g><path d="M 15.921875 2.707031 L 16.632812 -1.476562 L 7.460938 -3.035156 L 8.410156 -8.621094 L 16.773438 -7.199219 L 17.480469 -11.351562 L 9.117188 -12.773438 L 9.824219 -16.925781 L 17.023438 -15.703125 L 17.730469 -19.882812 L 5.902344 -21.894531 L 2.121094 0.359375 Z M 15.921875 2.707031 "/></g></g></g><g fill="#ffffff" fill-opacity="1"><g transform="translate(148.074884, 207.959035)"><g><path d="M 3.859375 -4.03125 C 4.109375 -4.007812 4.347656 -3.925781 4.578125 -3.78125 C 4.804688 -3.644531 4.992188 -3.457031 5.140625 -3.21875 C 5.285156 -2.988281 5.375 -2.734375 5.40625 -2.453125 C 5.445312 -2.109375 5.390625 -1.78125 5.234375 -1.46875 C 5.085938 -1.164062 4.851562 -0.914062 4.53125 -0.71875 C 4.207031 -0.519531 3.816406 -0.398438 3.359375 -0.359375 L 0.765625 -0.078125 L 0.03125 -7.015625 L 2.515625 -7.28125 C 2.992188 -7.332031 3.40625 -7.296875 3.75 -7.171875 C 4.09375 -7.054688 4.359375 -6.875 4.546875 -6.625 C 4.742188 -6.375 4.863281 -6.082031 4.90625 -5.75 C 4.945312 -5.332031 4.867188 -4.976562 4.671875 -4.6875 C 4.484375 -4.40625 4.210938 -4.1875 3.859375 -4.03125 Z M 1.25 -4.109375 L 2.765625 -4.28125 C 3.191406 -4.320312 3.507812 -4.453125 3.71875 -4.671875 C 3.925781 -4.898438 4.015625 -5.191406 3.984375 -5.546875 C 3.941406 -5.898438 3.796875 -6.160156 3.546875 -6.328125 C 3.296875 -6.503906 2.953125 -6.570312 2.515625 -6.53125 L 1.015625 -6.359375 Z M 3.203125 -1.09375 C 3.648438 -1.144531 3.988281 -1.289062 4.21875 -1.53125 C 4.445312 -1.769531 4.539062 -2.070312 4.5 -2.4375 C 4.457031 -2.832031 4.289062 -3.125 4 -3.3125 C 3.71875 -3.507812 3.351562 -3.582031 2.90625 -3.53125 L 1.328125 -3.359375 L 1.59375 -0.921875 Z M 3.203125 -1.09375 "/></g></g></g><g fill="#ffffff" fill-opacity="1"><g transform="translate(155.533917, 207.178507)"><g><path d="M 4.75 -1.953125 L 1.71875 -1.703125 L 1.296875 -0.109375 L 0.328125 -0.03125 L 2.25 -7.140625 L 3.3125 -7.234375 L 6.390625 -0.53125 L 5.4375 -0.453125 Z M 4.421875 -2.671875 L 2.875 -6.078125 L 1.921875 -2.453125 Z M 4.421875 -2.671875 "/></g></g></g><g fill="#ffffff" fill-opacity="1"><g transform="translate(163.617073, 206.523509)"><g><path d="M 4.421875 -0.265625 L 2.609375 -3.015625 L 1.515625 -2.953125 L 1.6875 -0.109375 L 0.765625 -0.046875 L 0.34375 -7 L 2.59375 -7.140625 C 3.125 -7.171875 3.570312 -7.109375 3.9375 -6.953125 C 4.3125 -6.796875 4.597656 -6.566406 4.796875 -6.265625 C 4.992188 -5.972656 5.101562 -5.628906 5.125 -5.234375 C 5.15625 -4.765625 5.039062 -4.335938 4.78125 -3.953125 C 4.53125 -3.566406 4.140625 -3.300781 3.609375 -3.15625 L 5.515625 -0.328125 Z M 1.46875 -3.6875 L 2.796875 -3.765625 C 3.296875 -3.796875 3.65625 -3.9375 3.875 -4.1875 C 4.101562 -4.4375 4.207031 -4.765625 4.1875 -5.171875 C 4.15625 -5.585938 4.015625 -5.898438 3.765625 -6.109375 C 3.515625 -6.328125 3.140625 -6.421875 2.640625 -6.390625 L 1.3125 -6.3125 Z M 1.46875 -3.6875 "/></g></g></g><g fill="#ffffff" fill-opacity="1"><g transform="translate(171.056799, 206.08613)"><g><path d="M 4.125 -3.765625 C 4.375 -3.734375 4.601562 -3.632812 4.8125 -3.46875 C 5.03125 -3.3125 5.207031 -3.113281 5.34375 -2.875 C 5.476562 -2.632812 5.550781 -2.375 5.5625 -2.09375 C 5.582031 -1.738281 5.503906 -1.414062 5.328125 -1.125 C 5.160156 -0.832031 4.90625 -0.597656 4.5625 -0.421875 C 4.226562 -0.242188 3.832031 -0.144531 3.375 -0.125 L 0.765625 -0.03125 L 0.5 -7 L 3 -7.09375 C 3.476562 -7.113281 3.882812 -7.050781 4.21875 -6.90625 C 4.5625 -6.757812 4.820312 -6.554688 5 -6.296875 C 5.175781 -6.046875 5.269531 -5.753906 5.28125 -5.421875 C 5.300781 -5.003906 5.203125 -4.65625 4.984375 -4.375 C 4.773438 -4.09375 4.488281 -3.890625 4.125 -3.765625 Z M 1.53125 -4.015625 L 3.046875 -4.078125 C 3.472656 -4.097656 3.800781 -4.210938 4.03125 -4.421875 C 4.257812 -4.628906 4.363281 -4.910156 4.34375 -5.265625 C 4.332031 -5.617188 4.203125 -5.890625 3.953125 -6.078125 C 3.710938 -6.273438 3.375 -6.363281 2.9375 -6.34375 L 1.4375 -6.28125 Z M 3.265625 -0.875 C 3.710938 -0.894531 4.0625 -1.015625 4.3125 -1.234375 C 4.5625 -1.460938 4.675781 -1.765625 4.65625 -2.140625 C 4.644531 -2.535156 4.5 -2.835938 4.21875 -3.046875 C 3.945312 -3.253906 3.585938 -3.347656 3.140625 -3.328125 L 1.5625 -3.265625 L 1.65625 -0.8125 Z M 3.265625 -0.875 "/></g></g></g><g fill="#ffffff" fill-opacity="1"><g transform="translate(178.558377, 205.812626)"><g><path d="M 1.578125 -6.265625 L 1.609375 -3.9375 L 4.140625 -3.984375 L 4.15625 -3.234375 L 1.625 -3.1875 L 1.671875 -0.78125 L 4.5 -0.828125 L 4.515625 -0.078125 L 0.765625 -0.015625 L 0.640625 -7 L 4.390625 -7.0625 L 4.40625 -6.3125 Z M 1.578125 -6.265625 "/></g></g></g><g fill="#ffffff" fill-opacity="1"><g transform="translate(185.064673, 205.700263)"><g><path d="M 4.4375 0 L 2.78125 -2.84375 L 1.6875 -2.84375 L 1.6875 0 L 0.765625 0 L 0.78125 -6.96875 L 3.03125 -6.96875 C 3.5625 -6.96875 4.007812 -6.878906 4.375 -6.703125 C 4.738281 -6.523438 5.007812 -6.28125 5.1875 -5.96875 C 5.363281 -5.65625 5.445312 -5.300781 5.4375 -4.90625 C 5.4375 -4.425781 5.296875 -4.003906 5.015625 -3.640625 C 4.742188 -3.273438 4.332031 -3.035156 3.78125 -2.921875 L 5.53125 0.015625 Z M 1.6875 -3.578125 L 3.015625 -3.578125 C 3.515625 -3.578125 3.882812 -3.695312 4.125 -3.9375 C 4.375 -4.1875 4.5 -4.515625 4.5 -4.921875 C 4.507812 -5.335938 4.390625 -5.65625 4.140625 -5.875 C 3.898438 -6.101562 3.53125 -6.21875 3.03125 -6.21875 L 1.703125 -6.21875 Z M 1.6875 -3.578125 "/></g></g></g><g fill="#ffffff" fill-opacity="1"><g transform="translate(192.531887, 205.737909)"><g/></g></g><g fill="#ffffff" fill-opacity="1"><g transform="translate(196.59099, 205.810417)"><g><path d="M 2.984375 0.171875 C 2.523438 0.148438 2.113281 0.0546875 1.75 -0.109375 C 1.394531 -0.285156 1.117188 -0.523438 0.921875 -0.828125 C 0.722656 -1.128906 0.625 -1.46875 0.625 -1.84375 L 1.609375 -1.8125 C 1.628906 -1.476562 1.753906 -1.195312 1.984375 -0.96875 C 2.210938 -0.738281 2.554688 -0.613281 3.015625 -0.59375 C 3.441406 -0.582031 3.78125 -0.675781 4.03125 -0.875 C 4.289062 -1.082031 4.425781 -1.359375 4.4375 -1.703125 C 4.445312 -1.972656 4.378906 -2.191406 4.234375 -2.359375 C 4.097656 -2.535156 3.921875 -2.671875 3.703125 -2.765625 C 3.492188 -2.859375 3.203125 -2.960938 2.828125 -3.078125 C 2.367188 -3.203125 2.003906 -3.328125 1.734375 -3.453125 C 1.460938 -3.585938 1.234375 -3.789062 1.046875 -4.0625 C 0.859375 -4.332031 0.769531 -4.679688 0.78125 -5.109375 C 0.800781 -5.492188 0.910156 -5.828125 1.109375 -6.109375 C 1.316406 -6.390625 1.597656 -6.601562 1.953125 -6.75 C 2.304688 -6.90625 2.710938 -6.976562 3.171875 -6.96875 C 3.828125 -6.9375 4.351562 -6.75 4.75 -6.40625 C 5.15625 -6.070312 5.378906 -5.628906 5.421875 -5.078125 L 4.421875 -5.125 C 4.398438 -5.394531 4.265625 -5.632812 4.015625 -5.84375 C 3.773438 -6.050781 3.453125 -6.164062 3.046875 -6.1875 C 2.671875 -6.195312 2.359375 -6.109375 2.109375 -5.921875 C 1.867188 -5.734375 1.738281 -5.460938 1.71875 -5.109375 C 1.71875 -4.859375 1.785156 -4.648438 1.921875 -4.484375 C 2.054688 -4.316406 2.222656 -4.1875 2.421875 -4.09375 C 2.628906 -4 2.925781 -3.894531 3.3125 -3.78125 C 3.757812 -3.632812 4.117188 -3.492188 4.390625 -3.359375 C 4.671875 -3.234375 4.90625 -3.035156 5.09375 -2.765625 C 5.289062 -2.503906 5.378906 -2.15625 5.359375 -1.71875 C 5.347656 -1.375 5.25 -1.050781 5.0625 -0.75 C 4.875 -0.457031 4.597656 -0.226562 4.234375 -0.0625 C 3.878906 0.101562 3.460938 0.179688 2.984375 0.171875 Z M 2.984375 0.171875 "/></g></g></g><g fill="#ffffff" fill-opacity="1"><g transform="translate(203.826519, 206.071015)"><g><path d="M 6.53125 -6.609375 L 6.125 0.34375 L 5.21875 0.296875 L 5.40625 -2.859375 L 1.875 -3.0625 L 1.6875 0.09375 L 0.765625 0.046875 L 1.171875 -6.90625 L 2.09375 -6.859375 L 1.90625 -3.8125 L 5.4375 -3.609375 L 5.625 -6.65625 Z M 6.53125 -6.609375 "/></g></g></g><g fill="#ffffff" fill-opacity="1"><g transform="translate(212.09363, 206.555964)"><g><path d="M 3.921875 0.390625 C 3.265625 0.335938 2.679688 0.140625 2.171875 -0.203125 C 1.671875 -0.554688 1.289062 -1.015625 1.03125 -1.578125 C 0.769531 -2.140625 0.664062 -2.757812 0.71875 -3.4375 C 0.78125 -4.125 0.984375 -4.722656 1.328125 -5.234375 C 1.679688 -5.753906 2.132812 -6.140625 2.6875 -6.390625 C 3.238281 -6.640625 3.84375 -6.738281 4.5 -6.6875 C 5.144531 -6.632812 5.722656 -6.4375 6.234375 -6.09375 C 6.742188 -5.757812 7.128906 -5.304688 7.390625 -4.734375 C 7.648438 -4.171875 7.75 -3.546875 7.6875 -2.859375 C 7.632812 -2.171875 7.429688 -1.570312 7.078125 -1.0625 C 6.734375 -0.5625 6.28125 -0.179688 5.71875 0.078125 C 5.164062 0.335938 4.566406 0.441406 3.921875 0.390625 Z M 3.984375 -0.390625 C 4.460938 -0.347656 4.90625 -0.425781 5.3125 -0.625 C 5.71875 -0.820312 6.050781 -1.117188 6.3125 -1.515625 C 6.570312 -1.910156 6.722656 -2.382812 6.765625 -2.9375 C 6.816406 -3.5 6.742188 -3.992188 6.546875 -4.421875 C 6.359375 -4.859375 6.082031 -5.207031 5.71875 -5.46875 C 5.351562 -5.726562 4.925781 -5.878906 4.4375 -5.921875 C 3.9375 -5.960938 3.484375 -5.882812 3.078125 -5.6875 C 2.679688 -5.488281 2.351562 -5.191406 2.09375 -4.796875 C 1.84375 -4.398438 1.691406 -3.921875 1.640625 -3.359375 C 1.597656 -2.804688 1.671875 -2.3125 1.859375 -1.875 C 2.046875 -1.445312 2.320312 -1.101562 2.6875 -0.84375 C 3.0625 -0.582031 3.492188 -0.429688 3.984375 -0.390625 Z M 3.984375 -0.390625 "/></g></g></g><g fill="#ffffff" fill-opacity="1"><g transform="translate(221.285341, 207.345782)"><g><path d="M 5.9375 -4.328125 C 5.875 -3.753906 5.617188 -3.296875 5.171875 -2.953125 C 4.734375 -2.609375 4.113281 -2.484375 3.3125 -2.578125 L 1.984375 -2.71875 L 1.671875 0.171875 L 0.765625 0.078125 L 1.5 -6.84375 L 3.734375 -6.609375 C 4.515625 -6.515625 5.09375 -6.257812 5.46875 -5.84375 C 5.84375 -5.425781 6 -4.921875 5.9375 -4.328125 Z M 3.390625 -3.328125 C 3.898438 -3.265625 4.28125 -3.328125 4.53125 -3.515625 C 4.789062 -3.703125 4.945312 -4.003906 5 -4.421875 C 5.082031 -5.273438 4.632812 -5.757812 3.65625 -5.875 L 2.328125 -6.015625 L 2.0625 -3.46875 Z M 3.390625 -3.328125 "/></g></g></g></svg>