<svg xmlns="http://www.w3.org/2000/svg" xmlns:xlink="http://www.w3.org/1999/xlink" width="500" zoomAndPan="magnify" viewBox="0 0 375 374.999991" height="500" preserveAspectRatio="xMidYMid meet" version="1.0"><defs><g/><clipPath id="a530e5ff46"><path d="M 28.566406 193.554688 L 56.316406 193.554688 L 56.316406 202.375 L 28.566406 202.375 Z M 28.566406 193.554688 " clip-rule="nonzero"/></clipPath><clipPath id="dba5ce1db0"><path d="M 42 195 L 56.316406 195 L 56.316406 201 L 42 201 Z M 42 195 " clip-rule="nonzero"/></clipPath><clipPath id="f02f5b5325"><path d="M 28.566406 189.144531 L 56.316406 189.144531 L 56.316406 197.046875 L 28.566406 197.046875 Z M 28.566406 189.144531 " clip-rule="nonzero"/></clipPath><clipPath id="1aae5b325b"><path d="M 28.566406 133.808594 L 56.316406 133.808594 L 56.316406 142.628906 L 28.566406 142.628906 Z M 28.566406 133.808594 " clip-rule="nonzero"/></clipPath><clipPath id="b69e324be6"><path d="M 42 135 L 56.316406 135 L 56.316406 141 L 42 141 Z M 42 135 " clip-rule="nonzero"/></clipPath><clipPath id="3c0bf658fd"><path d="M 28.566406 139.214844 L 56.316406 139.214844 L 56.316406 146.789062 L 28.566406 146.789062 Z M 28.566406 139.214844 " clip-rule="nonzero"/></clipPath><clipPath id="a66c68a585"><path d="M 31 126.417969 L 54 126.417969 L 54 136 L 31 136 Z M 31 126.417969 " clip-rule="nonzero"/></clipPath><clipPath id="c848babd6a"><path d="M 308.492188 193.554688 L 336.242188 193.554688 L 336.242188 202.375 L 308.492188 202.375 Z M 308.492188 193.554688 " clip-rule="nonzero"/></clipPath><clipPath id="5ef1c16350"><path d="M 308.492188 189.144531 L 336.242188 189.144531 L 336.242188 197.046875 L 308.492188 197.046875 Z M 308.492188 189.144531 " clip-rule="nonzero"/></clipPath><clipPath id="8e979b475a"><path d="M 308.492188 133.808594 L 336.242188 133.808594 L 336.242188 142.628906 L 308.492188 142.628906 Z M 308.492188 133.808594 " clip-rule="nonzero"/></clipPath><clipPath id="25009aa579"><path d="M 308.492188 139.214844 L 336.242188 139.214844 L 336.242188 146.789062 L 308.492188 146.789062 Z M 308.492188 139.214844 " clip-rule="nonzero"/></clipPath><clipPath id="88cb78c1f7"><path d="M 310 126.417969 L 334 126.417969 L 334 136 L 310 136 Z M 310 126.417969 " clip-rule="nonzero"/></clipPath><clipPath id="a8fb669c80"><path d="M 67 131 L 84 131 L 84 145 L 67 145 Z M 67 131 " clip-rule="nonzero"/></clipPath><clipPath id="11d0dbaca6"><path d="M 57.570312 137.25 L 79.769531 120.601562 L 89.222656 133.199219 L 67.023438 149.851562 Z M 57.570312 137.25 " clip-rule="nonzero"/></clipPath><clipPath id="ace88d18a4"><path d="M 57.570312 137.25 L 79.769531 120.601562 L 89.222656 133.199219 L 67.023438 149.851562 Z M 57.570312 137.25 " clip-rule="nonzero"/></clipPath><clipPath id="4f425c9c77"><path d="M 64 126 L 83 126 L 83 143 L 64 143 Z M 64 126 " clip-rule="nonzero"/></clipPath><clipPath id="107be1f88a"><path d="M 57.570312 137.25 L 79.769531 120.601562 L 89.222656 133.199219 L 67.023438 149.851562 Z M 57.570312 137.25 " clip-rule="nonzero"/></clipPath><clipPath id="3894f0a49a"><path d="M 57.570312 137.25 L 79.769531 120.601562 L 89.222656 133.199219 L 67.023438 149.851562 Z M 57.570312 137.25 " clip-rule="nonzero"/></clipPath><clipPath id="2a04bb4dcb"><path d="M 64 129 L 88 129 L 88 148 L 64 148 Z M 64 129 " clip-rule="nonzero"/></clipPath><clipPath id="a668338ae5"><path d="M 57.570312 137.25 L 79.769531 120.601562 L 89.222656 133.199219 L 67.023438 149.851562 Z M 57.570312 137.25 " clip-rule="nonzero"/></clipPath><clipPath id="7d2f9953c7"><path d="M 57.570312 137.25 L 79.769531 120.601562 L 89.222656 133.199219 L 67.023438 149.851562 Z M 57.570312 137.25 " clip-rule="nonzero"/></clipPath><clipPath id="56fff42ccc"><path d="M 62.667969 144.019531 L 84.851562 127.378906 L 89.222656 133.207031 L 67.035156 149.84375 Z M 62.667969 144.019531 " clip-rule="nonzero"/></clipPath><clipPath id="2b757e5417"><path d="M 62.667969 144.019531 L 84.84375 127.386719 L 89.210938 133.210938 L 67.035156 149.84375 Z M 62.667969 144.019531 " clip-rule="nonzero"/></clipPath></defs><path fill="#3b3a3d" d="M 53.621094 146.722656 C 53.679688 146.199219 51.96875 145.8125 51.457031 145.710938 C 44.886719 144.382812 31.003906 145.160156 31.257812 146.722656 L 31.257812 190.058594 C 31.363281 191.671875 45.332031 192.34375 51.617188 191.007812 C 52.65625 190.785156 53.59375 190.453125 53.621094 190.058594 L 53.621094 146.722656 " fill-opacity="1" fill-rule="nonzero"/><path fill="#3a4976" d="M 31.292969 170.992188 C 31.292969 172.882812 31.292969 174.773438 31.292969 176.660156 C 34.488281 173.410156 38.035156 172.078125 42.40625 171.210938 C 46.777344 170.339844 50.324219 169.007812 53.519531 165.757812 C 53.519531 163.867188 53.519531 161.980469 53.519531 160.089844 C 50.324219 163.34375 46.777344 164.675781 42.40625 165.542969 C 38.035156 166.410156 34.488281 167.742188 31.292969 170.992188 " fill-opacity="1" fill-rule="nonzero"/><path fill="#3a4976" d="M 53.519531 185.5 C 53.519531 183.609375 53.519531 181.722656 53.519531 179.832031 C 50.324219 183.082031 46.777344 184.414062 42.40625 185.285156 C 38.160156 186.125 34.691406 187.40625 31.570312 190.457031 C 33.007812 191.308594 37.785156 191.59375 39.453125 191.660156 C 43.367188 190.519531 48.679688 190.425781 53.519531 185.5 " fill-opacity="1" fill-rule="nonzero"/><path fill="#943843" d="M 31.292969 180.863281 C 31.292969 182.753906 31.292969 184.644531 31.292969 186.53125 C 34.488281 183.28125 38.035156 181.949219 42.40625 181.078125 C 46.777344 180.210938 50.324219 178.878906 53.519531 175.628906 C 53.519531 173.738281 53.519531 171.851562 53.519531 169.960938 C 50.324219 173.214844 46.777344 174.546875 42.40625 175.414062 C 38.035156 176.28125 34.488281 177.613281 31.292969 180.863281 " fill-opacity="1" fill-rule="nonzero"/><path fill="#3a4976" d="M 31.292969 151.253906 C 31.292969 153.140625 31.292969 155.03125 31.292969 156.917969 C 34.488281 153.667969 38.035156 152.335938 42.40625 151.46875 C 46.652344 150.625 50.117188 149.34375 53.238281 146.292969 C 51.800781 145.441406 47.023438 145.160156 45.359375 145.09375 C 41.445312 146.230469 36.128906 146.328125 31.292969 151.253906 " fill-opacity="1" fill-rule="nonzero"/><path fill="#9a354a" d="M 53.519531 155.886719 C 53.519531 153.996094 53.519531 152.109375 53.519531 150.21875 C 50.324219 153.472656 46.777344 154.804688 42.40625 155.671875 C 38.035156 156.539062 34.488281 157.871094 31.292969 161.121094 C 31.292969 163.011719 31.292969 164.902344 31.292969 166.789062 C 34.488281 163.539062 38.035156 162.207031 42.40625 161.339844 C 46.777344 160.46875 50.324219 159.136719 53.519531 155.886719 " fill-opacity="1" fill-rule="nonzero"/><path fill="#ffffff" d="M 39.933594 191.675781 C 46.101562 191.882812 52.742188 191.28125 53.519531 190.226562 C 53.519531 188.703125 53.519531 187.179688 53.519531 185.652344 C 48.808594 190.449219 43.601562 190.683594 39.933594 191.675781 " fill-opacity="1" fill-rule="nonzero"/><path fill="#ffffff" d="M 31.292969 176.8125 C 31.292969 178.113281 31.292969 179.414062 31.292969 180.710938 C 34.488281 177.460938 38.035156 176.128906 42.40625 175.257812 C 46.777344 174.390625 50.324219 173.058594 53.519531 169.808594 C 53.519531 168.507812 53.519531 167.210938 53.519531 165.910156 C 50.324219 169.164062 46.777344 170.496094 42.40625 171.363281 C 38.035156 172.230469 34.488281 173.5625 31.292969 176.8125 " fill-opacity="1" fill-rule="nonzero"/><path fill="#ffffff" d="M 53.519531 179.679688 C 53.519531 178.378906 53.519531 177.082031 53.519531 175.78125 C 50.324219 179.035156 46.777344 180.367188 42.40625 181.234375 C 38.035156 182.101562 34.488281 183.433594 31.292969 186.683594 C 31.292969 187.867188 31.328125 189.019531 31.328125 190.203125 C 31.371094 190.261719 31.433594 190.316406 31.511719 190.371094 C 34.65625 187.253906 38.117188 185.980469 42.40625 185.128906 C 46.777344 184.261719 50.324219 182.929688 53.519531 179.679688 " fill-opacity="1" fill-rule="nonzero"/><path fill="#ffffff" d="M 53.519531 156.039062 C 50.324219 159.292969 46.777344 160.625 42.40625 161.492188 C 38.035156 162.359375 34.488281 163.691406 31.292969 166.941406 C 31.292969 168.242188 31.292969 169.542969 31.292969 170.839844 C 34.488281 167.589844 38.035156 166.257812 42.40625 165.390625 C 46.777344 164.519531 50.324219 163.1875 53.519531 159.9375 C 53.519531 158.636719 53.519531 157.339844 53.519531 156.039062 " fill-opacity="1" fill-rule="nonzero"/><path fill="#ffffff" d="M 31.292969 157.074219 C 31.292969 158.371094 31.292969 159.671875 31.292969 160.96875 C 34.488281 157.71875 38.035156 156.386719 42.40625 155.519531 C 46.777344 154.648438 50.324219 153.316406 53.519531 150.066406 C 53.519531 148.886719 53.519531 147.703125 53.519531 146.523438 C 53.476562 146.464844 53.414062 146.40625 53.332031 146.351562 C 50.1875 149.46875 46.691406 150.769531 42.40625 151.621094 C 38.035156 152.488281 34.488281 153.820312 31.292969 157.074219 " fill-opacity="1" fill-rule="nonzero"/><path fill="#ffffff" d="M 44.875 145.074219 C 38.695312 144.867188 32.070312 145.472656 31.292969 146.523438 C 31.292969 148.046875 31.292969 149.574219 31.292969 151.097656 C 36.003906 146.304688 41.210938 146.070312 44.875 145.074219 " fill-opacity="1" fill-rule="nonzero"/><path fill="#3b3a3d" d="M 42.4375 145.035156 C 36.011719 145.035156 31.109375 145.828125 31.257812 146.722656 L 31.257812 190.058594 C 31.367188 191.691406 45.414062 192.328125 51.617188 191.007812 C 52.65625 190.785156 53.59375 190.453125 53.621094 190.058594 L 53.621094 146.722656 C 53.679688 146.199219 51.972656 145.816406 51.457031 145.710938 C 49.222656 145.257812 45.832031 145.035156 42.4375 145.035156 Z M 42.4375 145.582031 C 47.875 145.582031 52.144531 146.15625 53.058594 146.808594 L 53.070312 189.933594 C 52.960938 190.015625 52.582031 190.238281 51.503906 190.46875 C 45.871094 191.664062 33.519531 191.210938 31.808594 189.933594 L 31.832031 146.800781 C 32.207031 146.542969 33.082031 146.339844 33.53125 146.25 C 35.628906 145.828125 38.875 145.582031 42.4375 145.582031 " fill-opacity="1" fill-rule="nonzero"/><path fill="#3b3a3d" d="M 50.617188 190.632812 C 51.042969 190.5625 51.488281 190.480469 51.898438 190.375 L 51.261719 148.628906 L 50.617188 190.632812 " fill-opacity="1" fill-rule="nonzero"/><path fill="#3b3a3d" d="M 49.125 190.835938 C 49.566406 190.789062 49.980469 190.730469 50.375 190.671875 L 49.75 160.425781 L 49.125 190.835938 " fill-opacity="1" fill-rule="nonzero"/><path fill="#3b3a3d" d="M 47.640625 190.976562 C 48.050781 190.945312 48.449219 190.910156 48.832031 190.871094 L 48.230469 170 L 47.640625 190.976562 " fill-opacity="1" fill-rule="nonzero"/><path fill="#3b3a3d" d="M 46.207031 191.070312 C 46.558594 191.054688 46.90625 191.03125 47.242188 191.007812 L 46.726562 180.710938 L 46.207031 191.070312 " fill-opacity="1" fill-rule="nonzero"/><path fill="#ffffff" d="M 34.554688 166.238281 L 34.996094 146.007812 C 34.6875 146.050781 34.394531 146.09375 34.117188 146.140625 L 34.554688 166.238281 " fill-opacity="1" fill-rule="nonzero"/><path fill="#ffffff" d="M 37.515625 189.421875 C 38.203125 178.089844 38.089844 158.167969 37.515625 148.628906 C 36.867188 159.421875 36.898438 179.164062 37.515625 189.421875 " fill-opacity="1" fill-rule="nonzero"/><path fill="#ffffff" d="M 34.554688 182.742188 C 35.203125 180.230469 35.179688 174.394531 34.554688 171.957031 C 33.9375 174.371094 33.898438 180.195312 34.554688 182.742188 " fill-opacity="1" fill-rule="nonzero"/><path fill="#ffffff" d="M 39.933594 168.375 C 40.570312 163.695312 40.582031 154.996094 39.933594 150.21875 C 39.285156 155.019531 39.300781 163.699219 39.933594 168.375 " fill-opacity="1" fill-rule="nonzero"/><path fill="#ffffff" d="M 42.441406 196.320312 C 35.117188 196.320312 29.183594 195.390625 29.183594 194.242188 C 29.183594 195.210938 29.183594 199.15625 29.183594 199.664062 C 29.183594 200.8125 35.117188 201.742188 42.441406 201.742188 C 49.761719 201.742188 55.695312 200.8125 55.695312 199.664062 C 55.695312 199.15625 55.695312 195.210938 55.695312 194.242188 C 55.695312 195.390625 49.761719 196.320312 42.441406 196.320312 " fill-opacity="1" fill-rule="nonzero"/><g clip-path="url(#a530e5ff46)"><path fill="#3b3a3d" d="M 29.804688 199.570312 C 29.953125 199.695312 30.699219 200.179688 33.683594 200.597656 C 41.550781 201.703125 53.480469 200.917969 55.074219 199.570312 L 55.074219 195.550781 C 51.507812 197.042969 41.433594 196.9375 42.441406 196.9375 C 39.167969 196.9375 32.492188 196.675781 29.804688 195.550781 Z M 32.96875 201.742188 C 29.882812 201.257812 28.566406 200.636719 28.566406 199.664062 L 28.566406 194.242188 C 28.566406 193.902344 28.84375 193.625 29.183594 193.625 C 29.492188 193.625 29.746094 193.847656 29.796875 194.140625 C 29.921875 194.253906 30.636719 194.75 33.683594 195.175781 C 41.539062 196.28125 53.554688 195.496094 55.082031 194.140625 C 55.132812 193.847656 55.386719 193.625 55.695312 193.625 C 56.039062 193.625 56.316406 193.902344 56.316406 194.242188 L 56.316406 199.664062 C 56.316406 200.636719 54.996094 201.257812 51.910156 201.742188 C 46.703125 202.558594 38.253906 202.570312 32.96875 201.742188 " fill-opacity="1" fill-rule="nonzero"/></g><g clip-path="url(#dba5ce1db0)"><path fill="#3b3a3d" d="M 56.039062 195.207031 L 55.351562 195.207031 C 55.359375 195.25 55.214844 195.371094 55.179688 195.398438 C 53.28125 196.804688 44.902344 197.214844 42.441406 197.285156 C 45.425781 197.347656 52.257812 197.320312 55.019531 196.207031 C 54.234375 196.664062 52.636719 196.992188 51.746094 197.15625 C 48.796875 197.691406 45.40625 197.90625 42.441406 197.992188 C 45.429688 198.054688 52.269531 198.023438 55.019531 196.914062 C 52.773438 198.21875 45.125 198.621094 42.441406 198.699219 C 45.421875 198.761719 52.257812 198.734375 55.019531 197.621094 C 52.75 198.9375 45.121094 199.328125 42.441406 199.40625 C 45.425781 199.46875 52.257812 199.441406 55.019531 198.332031 C 52.730469 199.65625 45.082031 200.039062 42.441406 200.113281 C 45.421875 200.179688 52.257812 200.148438 55.019531 199.039062 C 52.734375 200.363281 45.085938 200.746094 42.441406 200.824219 C 44.582031 200.867188 55.09375 200.957031 55.972656 199.03125 C 56.007812 198.953125 56.019531 195.890625 56.039062 195.207031 " fill-opacity="1" fill-rule="nonzero"/></g><path fill="#3b3a3d" d="M 31.042969 200.726562 C 32.277344 205.871094 36.910156 209.695312 42.441406 209.695312 C 47.96875 209.695312 52.601562 205.871094 53.835938 200.726562 C 48.6875 202.078125 36.1875 202.078125 31.042969 200.726562 " fill-opacity="1" fill-rule="nonzero"/><path fill="#ffffff" d="M 36.976562 207.039062 C 38.890625 207.933594 40.796875 208.429688 43.082031 208.246094 C 46.703125 207.945312 49.4375 206.242188 51.5625 203.445312 C 48.765625 208.808594 41.773438 210.351562 36.976562 207.039062 " fill-opacity="1" fill-rule="nonzero"/><path fill="#ffffff" d="M 54.195312 193.183594 C 54.203125 193.132812 54.203125 193.199219 54.203125 192.160156 C 54.203125 191.953125 54.035156 191.738281 53.726562 191.515625 C 53.730469 191.449219 53.769531 189.859375 53.726562 189.789062 C 53.792969 191.445312 39.652344 192.078125 33.316406 190.800781 C 32.765625 190.6875 31.132812 190.347656 31.152344 189.789062 C 31.109375 189.859375 31.148438 191.449219 31.152344 191.515625 C 30.84375 191.738281 30.675781 191.953125 30.675781 192.160156 C 30.675781 193.199219 30.675781 193.132812 30.683594 193.183594 C 29.726562 193.46875 29.183594 193.796875 29.183594 194.140625 C 29.183594 194.179688 29.183594 194.234375 29.183594 194.304688 C 29.183594 195.453125 35.117188 196.382812 42.441406 196.382812 C 49.761719 196.382812 55.695312 195.453125 55.695312 194.304688 C 55.695312 194.234375 55.695312 194.179688 55.695312 194.140625 C 55.695312 193.796875 55.152344 193.46875 54.195312 193.183594 " fill-opacity="1" fill-rule="nonzero"/><g clip-path="url(#f02f5b5325)"><path fill="#3b3a3d" d="M 54.195312 193.183594 L 53.585938 193.089844 C 53.585938 193.089844 54.191406 193.183594 54.195312 193.183594 Z M 29.820312 194.222656 C 30 194.367188 30.792969 194.835938 33.683594 195.242188 C 41.46875 196.335938 53.335938 195.582031 55.058594 194.222656 C 54.960938 194.148438 54.691406 193.976562 54.019531 193.777344 C 53.726562 193.6875 53.542969 193.402344 53.582031 193.105469 L 53.582031 192.210938 C 53.558594 192.183594 53.5 192.117188 53.367188 192.019531 C 53.050781 191.796875 53.105469 191.515625 53.117188 191.027344 C 49.160156 192.460938 35.664062 192.441406 31.761719 191.027344 C 31.765625 191.175781 31.769531 191.371094 31.769531 191.457031 C 31.8125 191.914062 31.433594 192.03125 31.296875 192.210938 L 31.296875 193.105469 C 31.332031 193.402344 31.148438 193.6875 30.859375 193.777344 C 30.1875 193.976562 29.917969 194.148438 29.820312 194.222656 Z M 32.96875 196.386719 C 29.882812 195.902344 28.566406 195.28125 28.566406 194.304688 C 28.566406 193.867188 28.570312 193.269531 30.058594 192.734375 C 30.058594 192.109375 29.976562 191.738281 30.527344 191.226562 C 30.5 189.753906 30.507812 189.667969 30.621094 189.472656 C 30.914062 188.988281 31.648438 189.113281 31.761719 189.664062 C 32.574219 190.214844 36.519531 190.867188 42.4375 190.859375 C 48.15625 190.863281 52.25 190.253906 53.117188 189.664062 C 53.234375 189.113281 53.96875 188.988281 54.257812 189.472656 C 54.375 189.664062 54.382812 189.753906 54.351562 191.226562 C 54.902344 191.738281 54.820312 192.101562 54.820312 192.734375 C 56.230469 193.242188 56.316406 193.796875 56.316406 194.304688 C 56.316406 195.28125 54.996094 195.902344 51.910156 196.386719 C 46.6875 197.203125 38.242188 197.210938 32.96875 196.386719 " fill-opacity="1" fill-rule="nonzero"/></g><path fill="#3b3a3d" d="M 54.195312 192.847656 C 54.140625 193.175781 53.769531 193.421875 53.476562 193.578125 C 48.578125 196.222656 31.308594 195.292969 30.894531 192.847656 C 31.648438 195.125 53.484375 194.996094 54.195312 192.847656 " fill-opacity="1" fill-rule="nonzero"/><path fill="#3b3a3d" d="M 53.667969 191.316406 C 53.511719 191.605469 53.21875 191.800781 52.917969 191.953125 C 48.277344 194.410156 32.75 193.746094 31.417969 191.316406 C 32.980469 193.335938 46.8125 192.816406 49.949219 192.441406 C 50.832031 192.332031 53.125 192.023438 53.667969 191.316406 " fill-opacity="1" fill-rule="nonzero"/><path fill="#3b3a3d" d="M 42.441406 192.890625 C 39.933594 193.03125 34.742188 193.175781 32.363281 192.425781 C 31.304688 192.089844 31.207031 191.746094 31.074219 191.496094 L 31.464844 191.59375 C 31.355469 191.667969 31.253906 191.75 31.179688 191.832031 C 31.015625 192.003906 31.058594 191.953125 31.054688 193.003906 C 31.054688 193.011719 31.054688 193.027344 31.054688 193.023438 C 31.054688 193.027344 31.054688 193.027344 31.058594 193.039062 C 31.054688 193.035156 31.058594 193.050781 31.054688 193.03125 C 31.0625 193.0625 31.0625 193.058594 31.0625 193.058594 C 31.46875 194.25 41.160156 194.632812 42.441406 194.703125 C 39.730469 194.859375 31.46875 194.96875 30.59375 193.34375 C 30.5 193.164062 30.507812 193.03125 30.507812 192.898438 C 30.503906 191.71875 30.386719 191.671875 31.417969 190.976562 C 31.644531 191.429688 31.632812 191.421875 31.699219 191.496094 C 32.714844 192.628906 40.445312 192.773438 42.441406 192.890625 " fill-opacity="1" fill-rule="nonzero"/><path fill="#ffffff" d="M 42.441406 139.859375 C 35.117188 139.863281 29.183594 140.792969 29.183594 141.9375 C 29.183594 140.96875 29.183594 137.023438 29.183594 136.515625 C 29.183594 135.371094 35.117188 134.441406 42.441406 134.4375 C 49.761719 134.441406 55.695312 135.371094 55.695312 136.515625 C 55.695312 137.023438 55.695312 140.96875 55.695312 141.9375 C 55.695312 140.792969 49.761719 139.863281 42.441406 139.859375 " fill-opacity="1" fill-rule="nonzero"/><g clip-path="url(#1aae5b325b)"><path fill="#3b3a3d" d="M 29.804688 136.613281 L 29.804688 140.628906 C 33.941406 138.898438 50.378906 138.664062 55.074219 140.628906 L 55.074219 136.613281 C 54.925781 136.484375 54.179688 136 51.195312 135.582031 C 43.339844 134.480469 31.402344 135.257812 29.804688 136.613281 Z M 55.695312 142.558594 C 55.386719 142.558594 55.132812 142.332031 55.082031 142.039062 C 54.957031 141.925781 54.242188 141.429688 51.195312 141.003906 C 43.351562 139.902344 31.328125 140.679688 29.796875 142.039062 C 29.746094 142.332031 29.492188 142.558594 29.183594 142.558594 C 28.84375 142.558594 28.566406 142.28125 28.566406 141.9375 L 28.566406 136.515625 C 28.566406 135.542969 29.882812 134.921875 32.96875 134.4375 C 38.191406 133.617188 46.636719 133.609375 51.910156 134.4375 C 54.996094 134.921875 56.316406 135.542969 56.316406 136.515625 L 56.316406 141.9375 C 56.316406 142.28125 56.039062 142.558594 55.695312 142.558594 " fill-opacity="1" fill-rule="nonzero"/></g><g clip-path="url(#b69e324be6)"><path fill="#3b3a3d" d="M 56.039062 137.433594 C 55.972656 135.203125 44.679688 135.308594 42.441406 135.359375 C 44.664062 135.421875 46.914062 135.542969 49.265625 135.828125 C 50.515625 135.976562 53.867188 136.4375 55.046875 137.160156 C 52.234375 135.945312 44.285156 136.027344 42.441406 136.066406 C 44.664062 136.128906 46.914062 136.253906 49.265625 136.535156 C 50.515625 136.683594 53.871094 137.144531 55.050781 137.867188 C 52.238281 136.652344 44.28125 136.734375 42.441406 136.773438 C 44.664062 136.835938 46.914062 136.960938 49.265625 137.242188 C 50.515625 137.394531 53.871094 137.851562 55.050781 138.574219 C 52.238281 137.363281 44.28125 137.441406 42.441406 137.480469 C 44.664062 137.546875 46.914062 137.667969 49.265625 137.949219 C 50.515625 138.101562 53.871094 138.5625 55.050781 139.28125 C 52.238281 138.070312 44.28125 138.148438 42.441406 138.1875 C 44.664062 138.253906 46.914062 138.375 49.265625 138.660156 C 50.515625 138.808594 53.875 139.269531 55.050781 139.988281 C 52.242188 138.777344 44.296875 138.855469 42.441406 138.894531 C 44.660156 138.960938 46.910156 139.082031 49.265625 139.367188 C 50.5625 139.523438 54.140625 140.011719 55.179688 140.78125 C 55.214844 140.808594 55.359375 140.929688 55.351562 140.972656 L 56.039062 140.972656 C 56.03125 140.707031 56.039062 137.433594 56.039062 137.433594 " fill-opacity="1" fill-rule="nonzero"/></g><g clip-path="url(#3c0bf658fd)"><path fill="#3b3a3d" d="M 51.910156 139.875 C 46.683594 139.054688 38.238281 139.046875 32.96875 139.875 C 29.882812 140.355469 28.566406 140.980469 28.566406 141.953125 L 28.566406 142.117188 C 28.566406 143.078125 29.863281 143.484375 30.78125 143.75 C 30.78125 144.21875 30.699219 144.425781 31.316406 144.839844 C 31.277344 144.910156 31.257812 144.980469 31.257812 145.054688 C 31.257812 145.269531 31.210938 146.664062 31.257812 146.742188 C 31.214844 145.085938 45.433594 144.4375 51.617188 145.765625 C 52.152344 145.878906 53.640625 146.207031 53.621094 146.742188 C 53.667969 146.664062 53.625 145.269531 53.625 145.054688 C 53.625 144.980469 53.601562 144.910156 53.566406 144.839844 C 54.179688 144.425781 54.097656 144.21875 54.097656 143.75 C 54.953125 143.503906 56.316406 143.101562 56.316406 142.117188 L 56.316406 141.953125 C 56.316406 140.980469 54.996094 140.355469 51.910156 139.875 " fill-opacity="1" fill-rule="nonzero"/></g><path fill="#ffffff" d="M 29.183594 142.09375 C 29.183594 142.09375 29.101562 141.726562 30.019531 141.324219 C 33.070312 139.964844 42.605469 139.390625 49.789062 140.226562 C 55.996094 140.9375 55.695312 142.09375 55.695312 142.09375 C 55.695312 142.09375 56.183594 140.613281 44.988281 140.277344 C 40.015625 140.140625 29.589844 140.457031 29.199219 142.015625 C 29.183594 142.066406 29.1875 142.09375 29.183594 142.09375 " fill-opacity="1" fill-rule="nonzero"/><path fill="#ffffff" d="M 54.089844 143.25 C 53.359375 140.914062 31.507812 140.960938 30.789062 143.25 C 30.847656 142.925781 31.21875 142.683594 31.515625 142.53125 C 36.394531 139.960938 53.640625 140.839844 54.089844 143.25 " fill-opacity="1" fill-rule="nonzero"/><path fill="#ffffff" d="M 53.566406 144.78125 C 52.082031 142.800781 32.957031 142.585938 31.316406 144.78125 C 32.242188 143.144531 39.421875 142.691406 41.363281 142.65625 C 49.132812 142.5625 53.113281 143.871094 53.53125 144.722656 C 53.554688 144.761719 53.566406 144.78125 53.566406 144.78125 " fill-opacity="1" fill-rule="nonzero"/><g clip-path="url(#a66c68a585)"><path fill="#3b3a3d" d="M 31.042969 135.457031 C 32.277344 130.308594 36.910156 126.484375 42.441406 126.484375 C 47.96875 126.484375 52.601562 130.308594 53.835938 135.457031 C 48.6875 134.101562 36.1875 134.101562 31.042969 135.457031 " fill-opacity="1" fill-rule="nonzero"/></g><path fill="#ffffff" d="M 38.054688 131.503906 C 37.253906 132.140625 35.449219 132.730469 34.882812 132.253906 C 34.3125 131.773438 35.199219 130.40625 36 129.769531 C 36.875 129.070312 38.75 128.519531 39.316406 129 C 39.882812 129.476562 38.949219 130.789062 38.054688 131.503906 " fill-opacity="1" fill-rule="nonzero"/><path fill="#ffffff" d="M 41.363281 128.457031 C 41.363281 128.835938 41.054688 129.144531 40.675781 129.144531 C 40.296875 129.144531 39.988281 128.835938 39.988281 128.457031 C 39.988281 128.078125 40.296875 127.769531 40.675781 127.769531 C 41.054688 127.769531 41.363281 128.078125 41.363281 128.457031 " fill-opacity="1" fill-rule="nonzero"/><path fill="#ffffff" d="M 51.988281 134.449219 C 50.667969 131.570312 48.582031 129.710938 45.777344 128.457031 C 48.074219 129.667969 49.464844 130.9375 50.902344 133.390625 C 51.085938 133.753906 51.234375 134.054688 51.363281 134.355469 C 51.660156 134.398438 51.828125 134.425781 51.988281 134.449219 " fill-opacity="1" fill-rule="nonzero"/><g fill="#3a4976" fill-opacity="1"><g transform="translate(68.177915, 180.262378)"><g><path d="M 2.046875 0 L 2.046875 -46.4375 L 20.65625 -46.4375 L 20.65625 -37.46875 L 11.515625 -37.46875 L 11.515625 -28.4375 L 20.28125 -28.4375 L 20.28125 -19.671875 L 11.515625 -19.671875 L 11.515625 -9.03125 L 21.25 -9.03125 L 21.25 0 Z M 2.046875 0 "/></g></g></g><g fill="#3a4976" fill-opacity="1"><g transform="translate(95.856663, 180.262378)"><g><path d="M 2.046875 0 L 2.046875 -46.4375 L 11.359375 -46.4375 L 11.359375 -7.890625 L 20.921875 -7.890625 L 20.921875 0 Z M 2.046875 0 "/></g></g></g><g fill="#3a4976" fill-opacity="1"><g transform="translate(122.724527, 180.262378)"><g><path d="M 2.046875 0 L 2.046875 -46.4375 L 20.65625 -46.4375 L 20.65625 -37.46875 L 11.515625 -37.46875 L 11.515625 -28.4375 L 20.28125 -28.4375 L 20.28125 -19.671875 L 11.515625 -19.671875 L 11.515625 -9.03125 L 21.25 -9.03125 L 21.25 0 Z M 2.046875 0 "/></g></g></g><g fill="#3a4976" fill-opacity="1"><g transform="translate(150.403275, 180.262378)"><g><path d="M 11.625 0.4375 C 8.269531 0.4375 5.769531 -0.742188 4.125 -3.109375 C 2.488281 -5.472656 1.671875 -9.050781 1.671875 -13.84375 L 1.671875 -33.84375 C 1.671875 -38.132812 2.625 -41.378906 4.53125 -43.578125 C 6.445312 -45.773438 9.296875 -46.875 13.078125 -46.875 C 16.140625 -46.875 18.519531 -46.257812 20.21875 -45.03125 C 21.914062 -43.8125 23.085938 -42.03125 23.734375 -39.6875 C 24.378906 -37.34375 24.703125 -34.332031 24.703125 -30.65625 L 15.625 -30.65625 L 15.625 -34.8125 C 15.625 -35.9375 15.46875 -36.800781 15.15625 -37.40625 C 14.851562 -38.019531 14.304688 -38.328125 13.515625 -38.328125 C 11.742188 -38.328125 10.859375 -37.175781 10.859375 -34.875 L 10.859375 -12.375 C 10.859375 -10.96875 11.039062 -9.90625 11.40625 -9.1875 C 11.769531 -8.46875 12.398438 -8.109375 13.296875 -8.109375 C 14.203125 -8.109375 14.832031 -8.46875 15.1875 -9.1875 C 15.550781 -9.90625 15.734375 -10.96875 15.734375 -12.375 L 15.734375 -19.03125 L 13.25 -19.03125 L 13.25 -27.03125 L 24.59375 -27.03125 L 24.59375 0 L 20.875 0 L 19.296875 -3.890625 C 17.640625 -1.003906 15.082031 0.4375 11.625 0.4375 Z M 11.625 0.4375 "/></g></g></g><g fill="#3a4976" fill-opacity="1"><g transform="translate(182.028311, 180.262378)"><g><path d="M 0.8125 0 L 5.296875 -46.4375 L 21.03125 -46.4375 L 25.46875 0 L 16.65625 0 L 16 -7.515625 L 10.375 -7.515625 L 9.84375 0 Z M 11.078125 -14.921875 L 15.296875 -14.921875 L 13.25 -38.546875 L 12.8125 -38.546875 Z M 11.078125 -14.921875 "/></g></g></g><g fill="#3a4976" fill-opacity="1"><g transform="translate(213.653348, 180.262378)"><g><path d="M 2.046875 0 L 2.046875 -46.4375 L 11.625 -46.4375 L 15.890625 -24.21875 L 15.890625 -46.4375 L 24.875 -46.4375 L 24.875 0 L 15.78125 0 L 11.140625 -23.25 L 11.140625 0 Z M 2.046875 0 "/></g></g></g><g fill="#3a4976" fill-opacity="1"><g transform="translate(245.981142, 180.262378)"><g><path d="M 6.0625 0 L 6.0625 -37.515625 L 0.546875 -37.515625 L 0.546875 -46.4375 L 20.875 -46.4375 L 20.875 -37.515625 L 15.359375 -37.515625 L 15.359375 0 Z M 6.0625 0 "/></g></g></g><g fill="#3a4976" fill-opacity="1"><g transform="translate(272.794968, 180.262378)"><g><path d="M 2.046875 0 L 2.046875 -46.4375 L 20.65625 -46.4375 L 20.65625 -37.46875 L 11.515625 -37.46875 L 11.515625 -28.4375 L 20.28125 -28.4375 L 20.28125 -19.671875 L 11.515625 -19.671875 L 11.515625 -9.03125 L 21.25 -9.03125 L 21.25 0 Z M 2.046875 0 "/></g></g></g><path fill="#3b3a3d" d="M 333.550781 146.722656 C 333.609375 146.199219 331.898438 145.8125 331.386719 145.710938 C 324.816406 144.382812 310.933594 145.160156 311.1875 146.722656 L 311.1875 190.058594 C 311.292969 191.671875 325.261719 192.34375 331.546875 191.007812 C 332.585938 190.785156 333.523438 190.453125 333.550781 190.058594 L 333.550781 146.722656 " fill-opacity="1" fill-rule="nonzero"/><path fill="#3a4976" d="M 311.222656 170.992188 C 311.222656 172.882812 311.222656 174.773438 311.222656 176.660156 C 314.414062 173.410156 317.964844 172.078125 322.335938 171.210938 C 326.707031 170.339844 330.253906 169.007812 333.445312 165.757812 C 333.445312 163.867188 333.445312 161.980469 333.445312 160.089844 C 330.253906 163.34375 326.707031 164.675781 322.335938 165.542969 C 317.964844 166.410156 314.414062 167.742188 311.222656 170.992188 " fill-opacity="1" fill-rule="nonzero"/><path fill="#3a4976" d="M 333.445312 185.5 C 333.445312 183.609375 333.445312 181.722656 333.445312 179.832031 C 330.253906 183.082031 326.707031 184.414062 322.335938 185.285156 C 318.089844 186.125 314.621094 187.40625 311.5 190.457031 C 312.9375 191.308594 317.714844 191.59375 319.382812 191.660156 C 323.296875 190.519531 328.609375 190.425781 333.445312 185.5 " fill-opacity="1" fill-rule="nonzero"/><path fill="#943843" d="M 311.222656 180.863281 C 311.222656 182.753906 311.222656 184.644531 311.222656 186.53125 C 314.414062 183.28125 317.964844 181.949219 322.335938 181.078125 C 326.707031 180.210938 330.253906 178.878906 333.445312 175.628906 C 333.445312 173.738281 333.445312 171.851562 333.445312 169.960938 C 330.253906 173.214844 326.707031 174.546875 322.335938 175.414062 C 317.964844 176.28125 314.414062 177.613281 311.222656 180.863281 " fill-opacity="1" fill-rule="nonzero"/><path fill="#3a4976" d="M 311.222656 151.253906 C 311.222656 153.140625 311.222656 155.03125 311.222656 156.917969 C 314.414062 153.667969 317.964844 152.335938 322.335938 151.46875 C 326.578125 150.625 330.046875 149.34375 333.167969 146.292969 C 331.730469 145.441406 326.953125 145.160156 325.285156 145.09375 C 321.371094 146.230469 316.058594 146.328125 311.222656 151.253906 " fill-opacity="1" fill-rule="nonzero"/><path fill="#9a354a" d="M 333.445312 155.886719 C 333.445312 153.996094 333.445312 152.109375 333.445312 150.21875 C 330.253906 153.472656 326.707031 154.804688 322.335938 155.671875 C 317.964844 156.539062 314.414062 157.871094 311.222656 161.121094 C 311.222656 163.011719 311.222656 164.902344 311.222656 166.789062 C 314.414062 163.539062 317.964844 162.207031 322.335938 161.339844 C 326.707031 160.46875 330.253906 159.136719 333.445312 155.886719 " fill-opacity="1" fill-rule="nonzero"/><path fill="#ffffff" d="M 319.863281 191.675781 C 326.03125 191.882812 332.671875 191.28125 333.445312 190.226562 C 333.445312 188.703125 333.445312 187.179688 333.445312 185.652344 C 328.738281 190.449219 323.527344 190.683594 319.863281 191.675781 " fill-opacity="1" fill-rule="nonzero"/><path fill="#ffffff" d="M 311.222656 176.8125 C 311.222656 178.113281 311.222656 179.414062 311.222656 180.710938 C 314.414062 177.460938 317.964844 176.128906 322.335938 175.257812 C 326.707031 174.390625 330.253906 173.058594 333.445312 169.808594 C 333.445312 168.507812 333.445312 167.210938 333.445312 165.910156 C 330.253906 169.164062 326.707031 170.496094 322.335938 171.363281 C 317.964844 172.230469 314.414062 173.5625 311.222656 176.8125 " fill-opacity="1" fill-rule="nonzero"/><path fill="#ffffff" d="M 333.445312 179.679688 C 333.445312 178.378906 333.445312 177.082031 333.445312 175.78125 C 330.253906 179.035156 326.707031 180.367188 322.335938 181.234375 C 317.964844 182.101562 314.414062 183.433594 311.222656 186.683594 C 311.222656 187.867188 311.257812 189.019531 311.257812 190.203125 C 311.300781 190.261719 311.363281 190.316406 311.441406 190.371094 C 314.585938 187.253906 318.046875 185.980469 322.335938 185.128906 C 326.707031 184.261719 330.253906 182.929688 333.445312 179.679688 " fill-opacity="1" fill-rule="nonzero"/><path fill="#ffffff" d="M 333.445312 156.039062 C 330.253906 159.292969 326.707031 160.625 322.335938 161.492188 C 317.964844 162.359375 314.414062 163.691406 311.222656 166.941406 C 311.222656 168.242188 311.222656 169.542969 311.222656 170.839844 C 314.414062 167.589844 317.964844 166.257812 322.335938 165.390625 C 326.707031 164.519531 330.253906 163.1875 333.445312 159.9375 C 333.445312 158.636719 333.445312 157.339844 333.445312 156.039062 " fill-opacity="1" fill-rule="nonzero"/><path fill="#ffffff" d="M 311.222656 157.074219 C 311.222656 158.371094 311.222656 159.671875 311.222656 160.96875 C 314.414062 157.71875 317.964844 156.386719 322.335938 155.519531 C 326.707031 154.648438 330.253906 153.316406 333.445312 150.066406 C 333.445312 148.886719 333.445312 147.703125 333.445312 146.523438 C 333.402344 146.464844 333.339844 146.40625 333.261719 146.351562 C 330.117188 149.46875 326.621094 150.769531 322.335938 151.621094 C 317.964844 152.488281 314.414062 153.820312 311.222656 157.074219 " fill-opacity="1" fill-rule="nonzero"/><path fill="#ffffff" d="M 324.804688 145.074219 C 318.625 144.867188 312 145.472656 311.222656 146.523438 C 311.222656 148.046875 311.222656 149.574219 311.222656 151.097656 C 315.933594 146.304688 321.140625 146.070312 324.804688 145.074219 " fill-opacity="1" fill-rule="nonzero"/><path fill="#3b3a3d" d="M 322.367188 145.035156 C 315.941406 145.035156 311.039062 145.828125 311.1875 146.722656 L 311.1875 190.058594 C 311.296875 191.691406 325.34375 192.328125 331.546875 191.007812 C 332.585938 190.785156 333.523438 190.453125 333.550781 190.058594 L 333.550781 146.722656 C 333.609375 146.199219 331.902344 145.816406 331.386719 145.710938 C 329.148438 145.257812 325.757812 145.035156 322.367188 145.035156 Z M 322.367188 145.582031 C 327.804688 145.582031 332.070312 146.15625 332.988281 146.808594 L 333 189.933594 C 332.886719 190.015625 332.511719 190.238281 331.433594 190.46875 C 325.800781 191.664062 313.449219 191.210938 311.738281 189.933594 L 311.761719 146.800781 C 312.136719 146.542969 313.011719 146.339844 313.457031 146.25 C 315.558594 145.828125 318.804688 145.582031 322.367188 145.582031 " fill-opacity="1" fill-rule="nonzero"/><path fill="#3b3a3d" d="M 330.546875 190.632812 C 330.96875 190.5625 331.417969 190.480469 331.828125 190.375 L 331.191406 148.628906 L 330.546875 190.632812 " fill-opacity="1" fill-rule="nonzero"/><path fill="#3b3a3d" d="M 329.050781 190.835938 C 329.492188 190.789062 329.910156 190.730469 330.300781 190.671875 L 329.679688 160.425781 L 329.050781 190.835938 " fill-opacity="1" fill-rule="nonzero"/><path fill="#3b3a3d" d="M 327.570312 190.976562 C 327.980469 190.945312 328.378906 190.910156 328.761719 190.871094 L 328.160156 170 L 327.570312 190.976562 " fill-opacity="1" fill-rule="nonzero"/><path fill="#3b3a3d" d="M 326.136719 191.070312 C 326.488281 191.054688 326.835938 191.03125 327.171875 191.007812 L 326.65625 180.710938 L 326.136719 191.070312 " fill-opacity="1" fill-rule="nonzero"/><path fill="#ffffff" d="M 314.484375 166.238281 L 314.925781 146.007812 C 314.617188 146.050781 314.324219 146.09375 314.046875 146.140625 L 314.484375 166.238281 " fill-opacity="1" fill-rule="nonzero"/><path fill="#ffffff" d="M 317.445312 189.421875 C 318.132812 178.089844 318.019531 158.167969 317.445312 148.628906 C 316.796875 159.421875 316.824219 179.164062 317.445312 189.421875 " fill-opacity="1" fill-rule="nonzero"/><path fill="#ffffff" d="M 314.484375 182.742188 C 315.132812 180.230469 315.105469 174.394531 314.484375 171.957031 C 313.867188 174.371094 313.828125 180.195312 314.484375 182.742188 " fill-opacity="1" fill-rule="nonzero"/><path fill="#ffffff" d="M 319.863281 168.375 C 320.5 163.695312 320.507812 154.996094 319.863281 150.21875 C 319.214844 155.019531 319.226562 163.699219 319.863281 168.375 " fill-opacity="1" fill-rule="nonzero"/><path fill="#ffffff" d="M 322.367188 196.320312 C 315.046875 196.320312 309.113281 195.390625 309.113281 194.242188 C 309.113281 195.210938 309.113281 199.15625 309.113281 199.664062 C 309.113281 200.8125 315.046875 201.742188 322.367188 201.742188 C 329.691406 201.742188 335.625 200.8125 335.625 199.664062 C 335.625 199.15625 335.625 195.210938 335.625 194.242188 C 335.625 195.390625 329.691406 196.320312 322.367188 196.320312 " fill-opacity="1" fill-rule="nonzero"/><g clip-path="url(#c848babd6a)"><path fill="#3b3a3d" d="M 309.734375 199.570312 C 309.882812 199.695312 310.628906 200.179688 313.613281 200.597656 C 321.480469 201.703125 333.40625 200.917969 335.003906 199.570312 L 335.003906 195.550781 C 331.4375 197.042969 321.363281 196.9375 322.367188 196.9375 C 319.09375 196.9375 312.421875 196.675781 309.734375 195.550781 Z M 312.898438 201.742188 C 309.8125 201.257812 308.492188 200.636719 308.492188 199.664062 L 308.492188 194.242188 C 308.492188 193.902344 308.769531 193.625 309.113281 193.625 C 309.421875 193.625 309.675781 193.847656 309.722656 194.140625 C 309.851562 194.253906 310.566406 194.75 313.613281 195.175781 C 321.46875 196.28125 333.480469 195.496094 335.011719 194.140625 C 335.0625 193.847656 335.316406 193.625 335.625 193.625 C 335.964844 193.625 336.242188 193.902344 336.242188 194.242188 L 336.242188 199.664062 C 336.242188 200.636719 334.925781 201.257812 331.839844 201.742188 C 326.632812 202.558594 318.183594 202.570312 312.898438 201.742188 " fill-opacity="1" fill-rule="nonzero"/></g><path fill="#3b3a3d" d="M 335.96875 195.207031 L 335.28125 195.207031 C 335.289062 195.25 335.144531 195.371094 335.109375 195.398438 C 333.210938 196.804688 324.832031 197.214844 322.367188 197.285156 C 325.355469 197.347656 332.1875 197.320312 334.949219 196.207031 C 334.164062 196.664062 332.5625 196.992188 331.675781 197.15625 C 328.722656 197.691406 325.335938 197.90625 322.367188 197.992188 C 325.359375 198.054688 332.199219 198.023438 334.949219 196.914062 C 332.703125 198.21875 325.054688 198.621094 322.367188 198.699219 C 325.351562 198.761719 332.1875 198.734375 334.949219 197.621094 C 332.675781 198.9375 325.046875 199.328125 322.367188 199.40625 C 325.351562 199.46875 332.1875 199.441406 334.949219 198.332031 C 332.660156 199.65625 325.011719 200.039062 322.367188 200.113281 C 325.351562 200.179688 332.1875 200.148438 334.949219 199.039062 C 332.664062 200.363281 325.015625 200.746094 322.367188 200.824219 C 324.511719 200.867188 335.023438 200.957031 335.898438 199.03125 C 335.9375 198.953125 335.949219 195.890625 335.96875 195.207031 " fill-opacity="1" fill-rule="nonzero"/><path fill="#3b3a3d" d="M 310.972656 200.726562 C 312.207031 205.871094 316.839844 209.695312 322.367188 209.695312 C 327.898438 209.695312 332.53125 205.871094 333.765625 200.726562 C 328.617188 202.078125 316.117188 202.078125 310.972656 200.726562 " fill-opacity="1" fill-rule="nonzero"/><path fill="#ffffff" d="M 316.90625 207.039062 C 318.820312 207.933594 320.726562 208.429688 323.011719 208.246094 C 326.632812 207.945312 329.367188 206.242188 331.488281 203.445312 C 328.695312 208.808594 321.703125 210.351562 316.90625 207.039062 " fill-opacity="1" fill-rule="nonzero"/><path fill="#ffffff" d="M 334.125 193.183594 C 334.132812 193.132812 334.132812 193.199219 334.132812 192.160156 C 334.132812 191.953125 333.964844 191.738281 333.652344 191.515625 C 333.660156 191.449219 333.695312 189.859375 333.65625 189.789062 C 333.722656 191.445312 319.582031 192.078125 313.246094 190.800781 C 312.695312 190.6875 311.058594 190.347656 311.082031 189.789062 C 311.039062 189.859375 311.078125 191.449219 311.082031 191.515625 C 310.773438 191.738281 310.605469 191.953125 310.605469 192.160156 C 310.605469 193.199219 310.605469 193.132812 310.613281 193.183594 C 309.65625 193.46875 309.113281 193.796875 309.113281 194.140625 C 309.113281 194.179688 309.113281 194.234375 309.113281 194.304688 C 309.113281 195.453125 315.046875 196.382812 322.367188 196.382812 C 329.691406 196.382812 335.625 195.453125 335.625 194.304688 C 335.625 194.234375 335.625 194.179688 335.625 194.140625 C 335.625 193.796875 335.082031 193.46875 334.125 193.183594 " fill-opacity="1" fill-rule="nonzero"/><g clip-path="url(#5ef1c16350)"><path fill="#3b3a3d" d="M 334.125 193.183594 L 333.515625 193.089844 C 333.515625 193.089844 334.121094 193.183594 334.125 193.183594 Z M 309.75 194.222656 C 309.929688 194.367188 310.71875 194.835938 313.613281 195.242188 C 321.398438 196.335938 333.265625 195.582031 334.988281 194.222656 C 334.890625 194.148438 334.621094 193.976562 333.949219 193.777344 C 333.65625 193.6875 333.472656 193.402344 333.511719 193.105469 L 333.511719 192.210938 C 333.488281 192.183594 333.429688 192.117188 333.296875 192.019531 C 332.980469 191.796875 333.035156 191.515625 333.046875 191.027344 C 329.089844 192.460938 315.59375 192.441406 311.691406 191.027344 C 311.695312 191.175781 311.699219 191.371094 311.699219 191.457031 C 311.742188 191.914062 311.363281 192.03125 311.226562 192.210938 L 311.226562 193.105469 C 311.261719 193.402344 311.078125 193.6875 310.789062 193.777344 C 310.117188 193.976562 309.847656 194.148438 309.75 194.222656 Z M 312.898438 196.386719 C 309.8125 195.902344 308.492188 195.28125 308.492188 194.304688 C 308.492188 193.867188 308.5 193.269531 309.988281 192.734375 C 309.988281 192.109375 309.90625 191.738281 310.457031 191.226562 C 310.425781 189.753906 310.433594 189.667969 310.550781 189.472656 C 310.839844 188.988281 311.574219 189.113281 311.691406 189.664062 C 312.5 190.214844 316.449219 190.867188 322.367188 190.859375 C 328.085938 190.863281 332.179688 190.253906 333.046875 189.664062 C 333.160156 189.113281 333.894531 188.988281 334.1875 189.472656 C 334.304688 189.664062 334.3125 189.753906 334.28125 191.226562 C 334.828125 191.738281 334.75 192.101562 334.75 192.734375 C 336.160156 193.242188 336.242188 193.796875 336.242188 194.304688 C 336.242188 195.28125 334.925781 195.902344 331.839844 196.386719 C 326.617188 197.203125 318.167969 197.210938 312.898438 196.386719 " fill-opacity="1" fill-rule="nonzero"/></g><path fill="#3b3a3d" d="M 334.125 192.847656 C 334.070312 193.175781 333.699219 193.421875 333.40625 193.578125 C 328.507812 196.222656 311.238281 195.292969 310.824219 192.847656 C 311.574219 195.125 333.414062 194.996094 334.125 192.847656 " fill-opacity="1" fill-rule="nonzero"/><path fill="#3b3a3d" d="M 333.597656 191.316406 C 333.441406 191.605469 333.144531 191.800781 332.847656 191.953125 C 328.207031 194.410156 312.675781 193.746094 311.347656 191.316406 C 312.910156 193.335938 326.742188 192.816406 329.878906 192.441406 C 330.761719 192.332031 333.050781 192.023438 333.597656 191.316406 " fill-opacity="1" fill-rule="nonzero"/><path fill="#3b3a3d" d="M 322.367188 192.890625 C 319.863281 193.03125 314.671875 193.175781 312.292969 192.425781 C 311.234375 192.089844 311.136719 191.746094 311.003906 191.496094 L 311.394531 191.59375 C 311.285156 191.667969 311.183594 191.75 311.105469 191.832031 C 310.945312 192.003906 310.988281 191.953125 310.984375 193.003906 C 310.984375 193.011719 310.984375 193.027344 310.984375 193.023438 C 310.984375 193.027344 310.984375 193.027344 310.984375 193.039062 C 310.984375 193.035156 310.988281 193.050781 310.984375 193.03125 C 310.992188 193.0625 310.992188 193.058594 310.992188 193.058594 C 311.398438 194.25 321.089844 194.632812 322.367188 194.703125 C 319.660156 194.859375 311.398438 194.96875 310.523438 193.34375 C 310.425781 193.164062 310.4375 193.03125 310.4375 192.898438 C 310.433594 191.71875 310.316406 191.671875 311.347656 190.976562 C 311.574219 191.429688 311.558594 191.421875 311.628906 191.496094 C 312.640625 192.628906 320.375 192.773438 322.367188 192.890625 " fill-opacity="1" fill-rule="nonzero"/><path fill="#ffffff" d="M 322.367188 139.859375 C 315.046875 139.863281 309.113281 140.792969 309.113281 141.9375 C 309.113281 140.96875 309.113281 137.023438 309.113281 136.515625 C 309.113281 135.371094 315.046875 134.441406 322.367188 134.4375 C 329.691406 134.441406 335.625 135.371094 335.625 136.515625 C 335.625 137.023438 335.625 140.96875 335.625 141.9375 C 335.625 140.792969 329.691406 139.863281 322.367188 139.859375 " fill-opacity="1" fill-rule="nonzero"/><g clip-path="url(#8e979b475a)"><path fill="#3b3a3d" d="M 309.734375 136.613281 L 309.734375 140.628906 C 313.871094 138.898438 330.308594 138.664062 335.003906 140.628906 L 335.003906 136.613281 C 334.855469 136.484375 334.109375 136 331.125 135.582031 C 323.265625 134.480469 311.332031 135.257812 309.734375 136.613281 Z M 335.625 142.558594 C 335.316406 142.558594 335.0625 142.332031 335.011719 142.039062 C 334.886719 141.925781 334.171875 141.429688 331.125 141.003906 C 323.277344 139.902344 311.257812 140.679688 309.722656 142.039062 C 309.675781 142.332031 309.421875 142.558594 309.113281 142.558594 C 308.769531 142.558594 308.492188 142.28125 308.492188 141.9375 L 308.492188 136.515625 C 308.492188 135.542969 309.8125 134.921875 312.898438 134.4375 C 318.121094 133.617188 326.566406 133.609375 331.839844 134.4375 C 334.925781 134.921875 336.242188 135.542969 336.242188 136.515625 L 336.242188 141.9375 C 336.242188 142.28125 335.964844 142.558594 335.625 142.558594 " fill-opacity="1" fill-rule="nonzero"/></g><path fill="#3b3a3d" d="M 335.96875 137.433594 C 335.902344 135.203125 324.609375 135.308594 322.367188 135.359375 C 324.59375 135.421875 326.84375 135.542969 329.195312 135.828125 C 330.441406 135.976562 333.796875 136.4375 334.976562 137.160156 C 332.164062 135.945312 324.214844 136.027344 322.367188 136.066406 C 324.59375 136.128906 326.84375 136.253906 329.195312 136.535156 C 330.445312 136.683594 333.800781 137.144531 334.980469 137.867188 C 332.167969 136.652344 324.210938 136.734375 322.367188 136.773438 C 324.59375 136.835938 326.84375 136.960938 329.195312 137.242188 C 330.445312 137.394531 333.800781 137.851562 334.980469 138.574219 C 332.167969 137.363281 324.210938 137.441406 322.367188 137.480469 C 324.59375 137.546875 326.84375 137.667969 329.195312 137.949219 C 330.445312 138.101562 333.800781 138.5625 334.980469 139.28125 C 332.167969 138.070312 324.210938 138.148438 322.367188 138.1875 C 324.59375 138.253906 326.84375 138.375 329.195312 138.660156 C 330.445312 138.808594 333.800781 139.269531 334.980469 139.988281 C 332.171875 138.777344 324.226562 138.855469 322.367188 138.894531 C 324.585938 138.960938 326.839844 139.082031 329.195312 139.367188 C 330.492188 139.523438 334.066406 140.011719 335.109375 140.78125 C 335.144531 140.808594 335.289062 140.929688 335.28125 140.972656 L 335.96875 140.972656 C 335.960938 140.707031 335.96875 137.433594 335.96875 137.433594 " fill-opacity="1" fill-rule="nonzero"/><g clip-path="url(#25009aa579)"><path fill="#3b3a3d" d="M 331.839844 139.875 C 326.613281 139.054688 318.167969 139.046875 312.898438 139.875 C 309.8125 140.355469 308.492188 140.980469 308.492188 141.953125 L 308.492188 142.117188 C 308.492188 143.078125 309.792969 143.484375 310.710938 143.75 C 310.710938 144.21875 310.628906 144.425781 311.242188 144.839844 C 311.207031 144.910156 311.183594 144.980469 311.183594 145.054688 C 311.183594 145.269531 311.140625 146.664062 311.1875 146.742188 C 311.144531 145.085938 325.363281 144.4375 331.546875 145.765625 C 332.082031 145.878906 333.570312 146.207031 333.550781 146.742188 C 333.59375 146.664062 333.550781 145.269531 333.550781 145.054688 C 333.550781 144.980469 333.53125 144.910156 333.492188 144.839844 C 334.105469 144.425781 334.027344 144.21875 334.027344 143.75 C 334.882812 143.503906 336.242188 143.101562 336.242188 142.117188 L 336.242188 141.953125 C 336.242188 140.980469 334.925781 140.355469 331.839844 139.875 " fill-opacity="1" fill-rule="nonzero"/></g><path fill="#ffffff" d="M 309.113281 142.09375 C 309.113281 142.09375 309.03125 141.726562 309.949219 141.324219 C 313 139.964844 322.53125 139.390625 329.71875 140.226562 C 335.921875 140.9375 335.625 142.09375 335.625 142.09375 C 335.625 142.09375 336.113281 140.613281 324.917969 140.277344 C 319.945312 140.140625 309.519531 140.457031 309.125 142.015625 C 309.113281 142.066406 309.113281 142.09375 309.113281 142.09375 " fill-opacity="1" fill-rule="nonzero"/><path fill="#ffffff" d="M 334.019531 143.25 C 333.285156 140.914062 311.4375 140.960938 310.71875 143.25 C 310.777344 142.925781 311.148438 142.683594 311.445312 142.53125 C 316.324219 139.960938 333.570312 140.839844 334.019531 143.25 " fill-opacity="1" fill-rule="nonzero"/><path fill="#ffffff" d="M 333.492188 144.78125 C 332.011719 142.800781 312.886719 142.585938 311.242188 144.78125 C 312.171875 143.144531 319.351562 142.691406 321.289062 142.65625 C 329.0625 142.5625 333.042969 143.871094 333.460938 144.722656 C 333.484375 144.761719 333.492188 144.78125 333.492188 144.78125 " fill-opacity="1" fill-rule="nonzero"/><g clip-path="url(#88cb78c1f7)"><path fill="#3b3a3d" d="M 310.972656 135.457031 C 312.207031 130.308594 316.839844 126.484375 322.367188 126.484375 C 327.898438 126.484375 332.53125 130.308594 333.765625 135.457031 C 328.617188 134.101562 316.117188 134.101562 310.972656 135.457031 " fill-opacity="1" fill-rule="nonzero"/></g><path fill="#ffffff" d="M 317.980469 131.503906 C 317.183594 132.140625 315.378906 132.730469 314.808594 132.253906 C 314.242188 131.773438 315.128906 130.40625 315.929688 129.769531 C 316.804688 129.070312 318.679688 128.519531 319.246094 129 C 319.8125 129.476562 318.878906 130.789062 317.980469 131.503906 " fill-opacity="1" fill-rule="nonzero"/><path fill="#ffffff" d="M 321.292969 128.457031 C 321.292969 128.835938 320.984375 129.144531 320.605469 129.144531 C 320.222656 129.144531 319.917969 128.835938 319.917969 128.457031 C 319.917969 128.078125 320.222656 127.769531 320.605469 127.769531 C 320.984375 127.769531 321.292969 128.078125 321.292969 128.457031 " fill-opacity="1" fill-rule="nonzero"/><path fill="#ffffff" d="M 331.917969 134.449219 C 330.597656 131.570312 328.507812 129.710938 325.707031 128.457031 C 328.003906 129.667969 329.390625 130.9375 330.832031 133.390625 C 331.015625 133.753906 331.164062 134.054688 331.292969 134.355469 C 331.589844 134.398438 331.757812 134.425781 331.917969 134.449219 " fill-opacity="1" fill-rule="nonzero"/><g clip-path="url(#a8fb669c80)"><g clip-path="url(#11d0dbaca6)"><g clip-path="url(#ace88d18a4)"><path fill="#ffffff" d="M 82.480469 131.320312 L 83.710938 132.964844 C 83.710938 132.964844 81.792969 135.820312 76.707031 139.636719 C 71.617188 143.453125 68.339844 144.496094 68.339844 144.496094 L 67.105469 142.851562 C 67.105469 142.851562 70.386719 141.808594 75.472656 137.992188 C 80.558594 134.179688 82.480469 131.320312 82.480469 131.320312 " fill-opacity="1" fill-rule="nonzero"/></g></g></g><g clip-path="url(#4f425c9c77)"><g clip-path="url(#107be1f88a)"><g clip-path="url(#3894f0a49a)"><path fill="#3a4976" d="M 81.453125 129.929688 C 81.589844 130.113281 81.65625 130.226562 81.65625 130.226562 L 82.480469 131.320312 C 82.480469 131.320312 80.558594 134.179688 75.472656 137.992188 C 70.386719 141.808594 67.105469 142.851562 67.105469 142.851562 L 66.285156 141.757812 C 66.285156 141.757812 66.195312 141.660156 66.058594 141.476562 C 65.058594 140.15625 61.382812 134.394531 68.671875 128.925781 C 75.960938 123.457031 80.464844 128.601562 81.453125 129.929688 " fill-opacity="1" fill-rule="nonzero"/></g></g></g><g clip-path="url(#2a04bb4dcb)"><g clip-path="url(#a668338ae5)"><g clip-path="url(#7d2f9953c7)"><g clip-path="url(#56fff42ccc)"><g clip-path="url(#2b757e5417)"><path fill="#3a4976" d="M 86.941406 130.183594 C 88.980469 132.90625 81.578125 138.933594 78.121094 141.527344 C 74.664062 144.121094 66.804688 149.539062 64.765625 146.816406 C 63.230469 144.769531 65.0625 142.480469 66.058594 141.476562 C 66.195312 141.660156 66.285156 141.757812 66.285156 141.757812 L 68.339844 144.496094 C 68.339844 144.496094 71.617188 143.453125 76.707031 139.636719 C 81.792969 135.820312 83.710938 132.964844 83.710938 132.964844 L 81.65625 130.226562 C 81.65625 130.226562 81.589844 130.113281 81.453125 129.929688 C 82.695312 129.253906 85.40625 128.136719 86.941406 130.183594 " fill-opacity="1" fill-rule="nonzero"/></g></g></g></g></g><g fill="#943843" fill-opacity="1"><g transform="translate(91.660245, 203.022527)"><g><path d="M 3.859375 -13.734375 C 4.929688 -13.734375 5.695312 -13.476562 6.15625 -12.96875 C 6.613281 -12.46875 6.84375 -11.707031 6.84375 -10.6875 L 6.84375 -10.046875 C 6.84375 -9.304688 6.722656 -8.710938 6.484375 -8.265625 C 6.253906 -7.816406 5.835938 -7.5 5.234375 -7.3125 C 5.898438 -7.132812 6.375 -6.789062 6.65625 -6.28125 C 6.9375 -5.769531 7.078125 -5.132812 7.078125 -4.375 L 7.078125 -3.21875 C 7.078125 -2.1875 6.820312 -1.390625 6.3125 -0.828125 C 5.800781 -0.273438 5.007812 0 3.9375 0 L 0.78125 0 L 0.78125 -13.734375 Z M 3.484375 -7.90625 C 4.097656 -7.90625 4.554688 -8.023438 4.859375 -8.265625 C 5.171875 -8.515625 5.328125 -9 5.328125 -9.71875 L 5.328125 -10.53125 C 5.328125 -11.144531 5.210938 -11.597656 4.984375 -11.890625 C 4.753906 -12.179688 4.367188 -12.328125 3.828125 -12.328125 L 2.3125 -12.328125 L 2.3125 -7.90625 Z M 3.9375 -1.390625 C 5.019531 -1.390625 5.5625 -2.007812 5.5625 -3.25 L 5.5625 -4.46875 C 5.5625 -5.238281 5.40625 -5.769531 5.09375 -6.0625 C 4.789062 -6.363281 4.304688 -6.515625 3.640625 -6.515625 L 2.3125 -6.515625 L 2.3125 -1.390625 Z M 3.9375 -1.390625 "/></g></g></g><g fill="#943843" fill-opacity="1"><g transform="translate(109.675779, 203.022527)"><g><path d="M 2.328125 -2.765625 L 1.796875 0 L 0.390625 0 L 3.015625 -13.734375 L 5.234375 -13.734375 L 7.859375 0 L 6.328125 0 L 5.796875 -2.765625 Z M 2.53125 -4.078125 L 5.59375 -4.078125 L 4.046875 -12 Z M 2.53125 -4.078125 "/></g></g></g><g fill="#943843" fill-opacity="1"><g transform="translate(128.279127, 203.022527)"><g><path d="M 3.84375 -13.734375 C 4.925781 -13.734375 5.707031 -13.460938 6.1875 -12.921875 C 6.664062 -12.390625 6.90625 -11.613281 6.90625 -10.59375 L 6.90625 -9.46875 C 6.90625 -8.707031 6.765625 -8.09375 6.484375 -7.625 C 6.210938 -7.15625 5.785156 -6.828125 5.203125 -6.640625 C 5.828125 -6.460938 6.269531 -6.128906 6.53125 -5.640625 C 6.789062 -5.148438 6.921875 -4.53125 6.921875 -3.78125 L 6.921875 -1.640625 C 6.921875 -1.347656 6.929688 -1.0625 6.953125 -0.78125 C 6.984375 -0.5 7.066406 -0.238281 7.203125 0 L 5.640625 0 C 5.554688 -0.195312 5.492188 -0.410156 5.453125 -0.640625 C 5.410156 -0.867188 5.390625 -1.210938 5.390625 -1.671875 L 5.390625 -3.828125 C 5.390625 -4.597656 5.21875 -5.128906 4.875 -5.421875 C 4.53125 -5.710938 4.035156 -5.859375 3.390625 -5.859375 L 2.3125 -5.859375 L 2.3125 0 L 0.78125 0 L 0.78125 -13.734375 Z M 3.453125 -7.25 C 4.066406 -7.25 4.539062 -7.375 4.875 -7.625 C 5.21875 -7.882812 5.390625 -8.390625 5.390625 -9.140625 L 5.390625 -10.453125 C 5.390625 -11.078125 5.269531 -11.546875 5.03125 -11.859375 C 4.789062 -12.171875 4.378906 -12.328125 3.796875 -12.328125 L 2.3125 -12.328125 L 2.3125 -7.25 Z M 3.453125 -7.25 "/></g></g></g><g fill="#943843" fill-opacity="1"><g transform="translate(146.333846, 203.022527)"><g><path d="M 3.859375 -13.734375 C 4.929688 -13.734375 5.695312 -13.476562 6.15625 -12.96875 C 6.613281 -12.46875 6.84375 -11.707031 6.84375 -10.6875 L 6.84375 -10.046875 C 6.84375 -9.304688 6.722656 -8.710938 6.484375 -8.265625 C 6.253906 -7.816406 5.835938 -7.5 5.234375 -7.3125 C 5.898438 -7.132812 6.375 -6.789062 6.65625 -6.28125 C 6.9375 -5.769531 7.078125 -5.132812 7.078125 -4.375 L 7.078125 -3.21875 C 7.078125 -2.1875 6.820312 -1.390625 6.3125 -0.828125 C 5.800781 -0.273438 5.007812 0 3.9375 0 L 0.78125 0 L 0.78125 -13.734375 Z M 3.484375 -7.90625 C 4.097656 -7.90625 4.554688 -8.023438 4.859375 -8.265625 C 5.171875 -8.515625 5.328125 -9 5.328125 -9.71875 L 5.328125 -10.53125 C 5.328125 -11.144531 5.210938 -11.597656 4.984375 -11.890625 C 4.753906 -12.179688 4.367188 -12.328125 3.828125 -12.328125 L 2.3125 -12.328125 L 2.3125 -7.90625 Z M 3.9375 -1.390625 C 5.019531 -1.390625 5.5625 -2.007812 5.5625 -3.25 L 5.5625 -4.46875 C 5.5625 -5.238281 5.40625 -5.769531 5.09375 -6.0625 C 4.789062 -6.363281 4.304688 -6.515625 3.640625 -6.515625 L 2.3125 -6.515625 L 2.3125 -1.390625 Z M 3.9375 -1.390625 "/></g></g></g><g fill="#943843" fill-opacity="1"><g transform="translate(164.34938, 203.022527)"><g><path d="M 5.671875 -7.640625 L 5.671875 -6.28125 L 2.3125 -6.28125 L 2.3125 -1.390625 L 6.4375 -1.390625 L 6.4375 0 L 0.78125 0 L 0.78125 -13.734375 L 6.4375 -13.734375 L 6.4375 -12.328125 L 2.3125 -12.328125 L 2.3125 -7.640625 Z M 5.671875 -7.640625 "/></g></g></g><g fill="#943843" fill-opacity="1"><g transform="translate(181.737916, 203.022527)"><g><path d="M 3.84375 -13.734375 C 4.925781 -13.734375 5.707031 -13.460938 6.1875 -12.921875 C 6.664062 -12.390625 6.90625 -11.613281 6.90625 -10.59375 L 6.90625 -9.46875 C 6.90625 -8.707031 6.765625 -8.09375 6.484375 -7.625 C 6.210938 -7.15625 5.785156 -6.828125 5.203125 -6.640625 C 5.828125 -6.460938 6.269531 -6.128906 6.53125 -5.640625 C 6.789062 -5.148438 6.921875 -4.53125 6.921875 -3.78125 L 6.921875 -1.640625 C 6.921875 -1.347656 6.929688 -1.0625 6.953125 -0.78125 C 6.984375 -0.5 7.066406 -0.238281 7.203125 0 L 5.640625 0 C 5.554688 -0.195312 5.492188 -0.410156 5.453125 -0.640625 C 5.410156 -0.867188 5.390625 -1.210938 5.390625 -1.671875 L 5.390625 -3.828125 C 5.390625 -4.597656 5.21875 -5.128906 4.875 -5.421875 C 4.53125 -5.710938 4.035156 -5.859375 3.390625 -5.859375 L 2.3125 -5.859375 L 2.3125 0 L 0.78125 0 L 0.78125 -13.734375 Z M 3.453125 -7.25 C 4.066406 -7.25 4.539062 -7.375 4.875 -7.625 C 5.21875 -7.882812 5.390625 -8.390625 5.390625 -9.140625 L 5.390625 -10.453125 C 5.390625 -11.078125 5.269531 -11.546875 5.03125 -11.859375 C 4.789062 -12.171875 4.378906 -12.328125 3.796875 -12.328125 L 2.3125 -12.328125 L 2.3125 -7.25 Z M 3.453125 -7.25 "/></g></g></g><g fill="#943843" fill-opacity="1"><g transform="translate(199.792634, 203.022527)"><g/></g></g><g fill="#943843" fill-opacity="1"><g transform="translate(213.164448, 203.022527)"><g><path d="M 3.671875 -13.859375 C 4.710938 -13.859375 5.476562 -13.546875 5.96875 -12.921875 C 6.46875 -12.304688 6.71875 -11.476562 6.71875 -10.4375 L 6.71875 -10.0625 L 5.28125 -10.0625 L 5.28125 -10.515625 C 5.28125 -11.140625 5.15625 -11.617188 4.90625 -11.953125 C 4.65625 -12.296875 4.253906 -12.46875 3.703125 -12.46875 C 3.148438 -12.46875 2.75 -12.296875 2.5 -11.953125 C 2.257812 -11.617188 2.140625 -11.144531 2.140625 -10.53125 C 2.140625 -10.019531 2.253906 -9.570312 2.484375 -9.1875 C 2.710938 -8.8125 2.992188 -8.460938 3.328125 -8.140625 C 3.671875 -7.828125 4.039062 -7.515625 4.4375 -7.203125 C 4.84375 -6.898438 5.210938 -6.5625 5.546875 -6.1875 C 5.890625 -5.820312 6.175781 -5.40625 6.40625 -4.9375 C 6.632812 -4.476562 6.75 -3.929688 6.75 -3.296875 C 6.75 -2.242188 6.492188 -1.40625 5.984375 -0.78125 C 5.484375 -0.164062 4.703125 0.140625 3.640625 0.140625 C 2.585938 0.140625 1.8125 -0.164062 1.3125 -0.78125 C 0.8125 -1.40625 0.5625 -2.242188 0.5625 -3.296875 L 0.5625 -4.078125 L 2 -4.078125 L 2 -3.21875 C 2 -2.59375 2.128906 -2.109375 2.390625 -1.765625 C 2.648438 -1.421875 3.054688 -1.25 3.609375 -1.25 C 4.160156 -1.25 4.566406 -1.421875 4.828125 -1.765625 C 5.085938 -2.109375 5.21875 -2.59375 5.21875 -3.21875 C 5.21875 -3.726562 5.101562 -4.164062 4.875 -4.53125 C 4.644531 -4.90625 4.359375 -5.253906 4.015625 -5.578125 C 3.679688 -5.898438 3.316406 -6.210938 2.921875 -6.515625 C 2.523438 -6.828125 2.15625 -7.164062 1.8125 -7.53125 C 1.476562 -7.894531 1.195312 -8.304688 0.96875 -8.765625 C 0.738281 -9.234375 0.625 -9.789062 0.625 -10.4375 C 0.625 -11.488281 0.875 -12.320312 1.375 -12.9375 C 1.875 -13.550781 2.640625 -13.859375 3.671875 -13.859375 Z M 3.671875 -13.859375 "/></g></g></g><g fill="#943843" fill-opacity="1"><g transform="translate(230.788119, 203.022527)"><g><path d="M 2.3125 -6.171875 L 2.3125 0 L 0.78125 0 L 0.78125 -13.734375 L 2.3125 -13.734375 L 2.3125 -7.546875 L 5.6875 -7.546875 L 5.6875 -13.734375 L 7.21875 -13.734375 L 7.21875 0 L 5.6875 0 L 5.6875 -6.171875 Z M 2.3125 -6.171875 "/></g></g></g><g fill="#943843" fill-opacity="1"><g transform="translate(249.117159, 203.022527)"><g><path d="M 0.671875 -10.40625 C 0.671875 -11.46875 0.925781 -12.304688 1.4375 -12.921875 C 1.957031 -13.546875 2.742188 -13.859375 3.796875 -13.859375 C 4.859375 -13.859375 5.648438 -13.546875 6.171875 -12.921875 C 6.703125 -12.304688 6.96875 -11.46875 6.96875 -10.40625 L 6.96875 -3.3125 C 6.96875 -2.269531 6.703125 -1.429688 6.171875 -0.796875 C 5.648438 -0.171875 4.859375 0.140625 3.796875 0.140625 C 2.742188 0.140625 1.957031 -0.171875 1.4375 -0.796875 C 0.925781 -1.429688 0.671875 -2.269531 0.671875 -3.3125 Z M 2.171875 -3.234375 C 2.171875 -2.609375 2.304688 -2.117188 2.578125 -1.765625 C 2.847656 -1.421875 3.253906 -1.25 3.796875 -1.25 C 4.359375 -1.25 4.769531 -1.421875 5.03125 -1.765625 C 5.300781 -2.117188 5.4375 -2.609375 5.4375 -3.234375 L 5.4375 -10.484375 C 5.4375 -11.117188 5.300781 -11.609375 5.03125 -11.953125 C 4.769531 -12.296875 4.359375 -12.46875 3.796875 -12.46875 C 3.253906 -12.46875 2.847656 -12.296875 2.578125 -11.953125 C 2.304688 -11.609375 2.171875 -11.117188 2.171875 -10.484375 Z M 2.171875 -3.234375 "/></g></g></g><g fill="#943843" fill-opacity="1"><g transform="translate(267.073922, 203.022527)"><g><path d="M 3.78125 -13.734375 C 4.863281 -13.734375 5.644531 -13.429688 6.125 -12.828125 C 6.613281 -12.234375 6.859375 -11.414062 6.859375 -10.375 L 6.859375 -8.71875 C 6.859375 -7.625 6.597656 -6.796875 6.078125 -6.234375 C 5.566406 -5.679688 4.765625 -5.40625 3.671875 -5.40625 L 2.3125 -5.40625 L 2.3125 0 L 0.78125 0 L 0.78125 -13.734375 Z M 3.671875 -6.78125 C 4.242188 -6.78125 4.664062 -6.921875 4.9375 -7.203125 C 5.21875 -7.484375 5.359375 -7.957031 5.359375 -8.625 L 5.359375 -10.453125 C 5.359375 -11.078125 5.234375 -11.546875 4.984375 -11.859375 C 4.742188 -12.171875 4.34375 -12.328125 3.78125 -12.328125 L 2.3125 -12.328125 L 2.3125 -6.78125 Z M 3.671875 -6.78125 "/></g></g></g></svg>